<svg width="218" height="20" viewBox="0 0 218 20" fill="none" xmlns="http://www.w3.org/2000/svg">
<g clip-path="url(#clip0_1713_1383)">
<mask id="mask0_1713_1383" style="mask-type:luminance" maskUnits="userSpaceOnUse" x="0" y="0" width="218" height="20">
<path d="M218 0H0V20H218V0Z" fill="white"/>
</mask>
<g mask="url(#mask0_1713_1383)">
<path d="M213.609 16.5115C211.172 16.5115 210.069 15.4833 210.069 13.5188V8.48813H206.278V6.41344H210.069V4.21021H213.222V6.41344H218V8.48813H213.222V13.1333C213.222 14.0145 213.783 14.4001 214.982 14.4001H218V16.5115H213.609Z" fill="#101010"/>
<path d="M199.289 16.8422C195.15 16.8422 192.074 14.6573 192.074 11.481C192.074 8.28637 195.188 6.08313 199.289 6.08313C203.042 6.08313 205.904 7.90079 206.407 10.5997H203.293C202.887 9.09421 201.339 8.17618 199.289 8.17618C197.007 8.17618 195.285 9.47976 195.285 11.4443C195.285 13.4639 196.987 14.7491 199.289 14.7491C201.378 14.7491 202.945 13.7577 203.312 12.2338H206.407C205.962 14.9878 203.138 16.8422 199.289 16.8422Z" fill="#101010"/>
<path d="M187.85 5.51395V3.4209H191.042V5.51395H187.85ZM187.85 16.5117V6.41361H191.042V16.5117H187.85Z" fill="#101010"/>
<path d="M178.763 16.5118V6.41368H181.994V8.5251C182.98 7.03791 184.47 6.19336 186.559 6.19336C186.694 6.19336 186.752 6.19336 186.887 6.2117V8.72704C186.539 8.69033 186.191 8.67196 185.843 8.67196C184.199 8.67196 182.69 9.27786 181.994 10.4345V16.5118H178.763Z" fill="#101010"/>
<path d="M173.448 16.5116C171.011 16.5116 169.908 15.4835 169.908 13.5189V8.48825H166.117V6.41356H169.908V4.21033H173.061V6.41356H177.839V8.48825H173.061V13.1334C173.061 14.0146 173.622 14.4002 174.822 14.4002H177.839V16.5116H173.448Z" fill="#101010"/>
<path d="M159.784 16.8055C156.07 16.8055 153.439 15.4468 152.743 12.9682H155.857C156.321 14.1983 157.714 14.896 159.745 14.896C161.95 14.896 162.937 14.3636 162.937 13.6659C162.937 12.7112 161.196 12.5826 159.184 12.4358C156.321 12.2154 152.878 11.9951 152.878 9.47977C152.878 7.46016 155.141 6.11987 158.855 6.11987C162.55 6.11987 165.219 7.44179 165.973 9.82861H162.917C162.337 8.63521 161.002 8.06603 158.874 8.06603C156.94 8.06603 156.012 8.5434 156.012 9.186C156.012 10.0857 157.656 10.2325 159.629 10.3611C162.511 10.563 166.07 10.765 166.07 13.3721C166.07 15.3734 163.672 16.8055 159.784 16.8055Z" fill="#101010"/>
<path d="M148.576 5.51395V3.4209H151.767V5.51395H148.576ZM148.576 16.5117V6.41361H151.767V16.5117H148.576Z" fill="#101010"/>
<path d="M130.632 16.5117V3.65955H138.543C143.785 3.65955 147.364 6.11981 147.364 10.0856C147.364 14.0147 143.746 16.5117 138.543 16.5117H130.632ZM138.427 5.97291H133.997V14.235H138.427C141.812 14.235 143.882 12.7294 143.882 10.1223C143.882 7.47844 141.812 5.97291 138.427 5.97291Z" fill="#101010"/>
<path d="M117.529 16.8422C113.467 16.8422 110.392 14.639 110.392 11.481C110.392 8.32308 113.564 6.08313 117.568 6.08313C121.475 6.08313 124.686 8.23126 124.686 11.7013V11.8849H113.583C113.796 13.6475 115.363 14.7858 117.568 14.7858C119.347 14.7858 120.701 14.0698 121.32 12.858H124.512C123.68 15.2081 121.05 16.8422 117.529 16.8422ZM117.529 8.10276C115.672 8.10276 114.26 8.98405 113.757 10.3427H121.359C120.837 8.96568 119.405 8.10276 117.529 8.10276Z" fill="#101010"/>
<path d="M102.476 16.8421C98.3364 16.8421 95.2607 14.6572 95.2607 11.4809C95.2607 8.28625 98.375 6.08301 102.476 6.08301C106.229 6.08301 109.091 7.90067 109.594 10.5996H106.48C106.074 9.09409 104.526 8.17606 102.476 8.17606C100.193 8.17606 98.4719 9.47964 98.4719 11.4442C98.4719 13.4638 100.174 14.749 102.476 14.749C104.565 14.749 106.132 13.7576 106.499 12.2337H109.594C109.149 14.9877 106.325 16.8421 102.476 16.8421Z" fill="#101010"/>
<path d="M81.0049 16.5119V6.41386H84.2352V8.04791C85.3376 6.85451 86.9431 6.17517 88.8581 6.17517C92.1076 6.17517 94.3129 7.99283 94.3129 10.8937V16.5119H91.102V11.3711C91.102 9.36986 89.7286 8.34167 87.7361 8.34167C86.2469 8.34167 84.9701 8.94757 84.2352 9.88393V16.5119H81.0049Z" fill="#101010"/>
<path d="M71.4207 16.7505C68.4034 16.7505 66.527 15.5754 66.527 13.8312C66.527 11.1323 70.3764 10.9303 73.3938 10.5631C75.2507 10.3428 76.508 10.1041 76.508 9.35133C76.508 8.65365 75.5215 8.08449 73.6454 8.08449C71.6143 8.08449 70.299 8.89233 69.8735 10.049H66.8364C67.4749 7.80907 70.1057 6.13831 73.7615 6.13831C77.5334 6.13831 79.7192 7.55204 79.7192 10.2877V16.5118H76.5469V15.0246C75.3088 16.1813 73.5293 16.7505 71.4207 16.7505ZM69.6799 13.7578C69.6799 14.5105 70.5698 14.9695 72.1173 14.9695C73.7421 14.9695 75.5409 14.4371 76.5469 13.4456V11.5362V11.4995C75.8117 11.9401 74.5544 12.087 73.3166 12.2339C71.4016 12.4725 69.6799 12.6378 69.6799 13.7578Z" fill="#101010"/>
<path d="M52.3101 16.5119V6.41386H55.5404V8.04791C56.6427 6.85451 58.2483 6.17517 60.1633 6.17517C63.4128 6.17517 65.618 7.99283 65.618 10.8937V16.5119H62.4071V11.3711C62.4071 9.36986 61.0337 8.34167 59.0413 8.34167C57.552 8.34167 56.2753 8.94757 55.5404 9.88393V16.5119H52.3101Z" fill="#101010"/>
<path d="M47.8134 5.51395V3.4209H51.0051V5.51395H47.8134ZM47.8134 16.5117V6.41361H51.0051V16.5117H47.8134Z" fill="#101010"/>
<path d="M32.306 16.5115V3.65942H46.7941V5.97279H35.6716V8.92877H43.8346V11.1871H35.6716V16.5115H32.306Z" fill="#101010"/>
<path d="M23.6386 0V3.21637V3.39182H5.32214C5.01802 3.39182 4.00889 3.27484 4.00889 4.38597V20H0V6.84211L4.00889 3.39182L8.06135 0H23.6386Z" fill="#101010"/>
<path d="M7.87952 19.9999V16.2572H18.6519C18.729 16.2573 19.7679 16.2572 19.7679 14.9707V7.1344H23.6386V12.8655L19.5776 16.3157L15.2135 19.9999H7.87952Z" fill="#101010"/>
</g>
</g>
<defs>
<clipPath id="clip0_1713_1383">
<rect width="218" height="20" fill="white"/>
</clipPath>
</defs>
</svg>
